<svg width="40" height="41" viewBox="0 0 40 41" fill="none" xmlns="http://www.w3.org/2000/svg">
<path d="M32.068 11.8953V16.1543C32.0675 16.3424 31.9925 16.5226 31.8595 16.6556C31.7265 16.7886 31.5463 16.8636 31.3582 16.8641H5.09285C4.05962 16.8646 3.06146 16.4893 2.28452 15.8082C1.50759 15.127 1.00493 14.1865 0.870291 13.1621C0.735648 12.1377 0.978213 11.0993 1.55275 10.2405C2.12729 9.38172 2.99457 8.76123 3.99285 8.49476C4.35074 8.39375 4.72099 8.34327 5.09285 8.34476H28.5187C29.4602 8.34494 30.363 8.7191 31.0287 9.38494C31.6943 10.0508 32.0682 10.9538 32.068 11.8953Z" fill="#C6E5FF"/>
<path d="M32.0678 11.8952V16.1542C32.0672 16.3423 31.9923 16.5226 31.8593 16.6556C31.7263 16.7886 31.546 16.8635 31.3579 16.8641H5.09259C4.34725 16.8656 3.61479 16.6697 2.96976 16.2962C2.96293 16.0762 2.96293 15.8561 2.96293 15.6296C2.95881 13.2145 3.3056 10.8116 3.99243 8.49622C4.35031 8.39522 4.72056 8.34473 5.09243 8.34622H28.5184C29.4597 8.3464 30.3623 8.72036 31.0279 9.38588C31.6935 10.0514 32.0675 10.954 32.0678 11.8952Z" fill="#EAF7FF"/>
<path d="M32.0677 11.8954V16.1544C32.0672 16.3425 31.9922 16.5227 31.8592 16.6557C31.7262 16.7887 31.5459 16.8637 31.3578 16.8642H16.351C15.3033 14.1548 14.9638 11.2229 15.3645 8.3457H28.5183C29.4597 8.34588 30.3624 8.71993 31.028 9.38559C31.6936 10.0513 32.0676 10.954 32.0677 11.8954Z" fill="white"/>
<path d="M33.9205 15.5581C33.9216 15.582 33.9193 15.6059 33.9136 15.6291C33.8406 16.0907 33.6329 16.5203 33.3166 16.8643C33.2369 16.9525 33.1515 17.0355 33.0611 17.1128L22.108 26.3056L16.9833 30.6076C16.8571 30.7161 16.6953 30.7741 16.529 30.7708C16.4264 30.7712 16.325 30.7491 16.2318 30.7062C16.1387 30.6633 16.056 30.6005 15.9896 30.5223L4.11996 16.3886C4.0011 16.2432 3.94262 16.0577 3.95663 15.8705C3.96374 15.7774 3.98938 15.6867 4.03206 15.6037C4.07474 15.5207 4.13358 15.4471 4.20513 15.3871L7.74763 12.4135L18.0833 3.73879L20.2833 1.89296C20.7334 1.50713 21.3094 1.30002 21.9021 1.31096C22.195 1.31308 22.4838 1.37894 22.7486 1.50397C23.0134 1.629 23.2478 1.81019 23.4355 2.03496L33.4735 13.9893C33.6582 14.2051 33.7917 14.46 33.864 14.7348C33.9401 15.0023 33.9593 15.2827 33.9205 15.5581Z" fill="#FE9C39"/>
<path d="M33.9204 15.5581C33.9215 15.582 33.9192 15.6059 33.9136 15.6291C33.8405 16.0907 33.6329 16.5203 33.3166 16.8643C33.2368 16.9525 33.1515 17.0355 33.0611 17.1128L22.1079 26.3056C18.8437 25.1815 15.866 23.3549 13.3848 20.9545C10.9035 18.5541 8.9792 15.6386 7.74756 12.4135L18.0832 3.73879L20.2832 1.89296C20.7333 1.50713 21.3094 1.30002 21.9021 1.31096C22.1949 1.31308 22.4837 1.37894 22.7485 1.50397C23.0133 1.629 23.2477 1.81019 23.4354 2.03496L33.4734 13.9893C33.6582 14.2051 33.7917 14.46 33.8639 14.7348C33.94 15.0023 33.9592 15.2827 33.9204 15.5581Z" fill="#FED154"/>
<path d="M33.9207 15.5581C33.8285 15.5653 33.7363 15.5653 33.6442 15.5653C30.1126 15.5729 26.6764 14.4194 23.8647 12.2824C21.053 10.1455 19.0217 7.14352 18.0835 3.73879L20.2835 1.89296C20.7336 1.50713 21.3096 1.30002 21.9023 1.31096C22.1951 1.31308 22.484 1.37894 22.7488 1.50397C23.0136 1.629 23.248 1.81019 23.4357 2.03496L33.4737 13.9893C33.6584 14.2051 33.7919 14.46 33.8642 14.7348C33.9403 15.0023 33.9595 15.2827 33.9207 15.5581Z" fill="#FEEC88"/>
<path d="M14.2479 28.0549C14.1443 28.0552 14.0418 28.0326 13.9479 27.9888C13.8539 27.945 13.7708 27.8811 13.7042 27.8016L6.40175 19.1056C6.28055 18.9612 6.22166 18.7745 6.23804 18.5867C6.25442 18.3989 6.34471 18.2252 6.48908 18.1039L18.8557 7.72561C19 7.60481 19.1863 7.54616 19.3738 7.56253C19.5613 7.5789 19.7346 7.66896 19.8557 7.81295C20.4044 8.46678 22.0867 8.19061 22.8939 7.51295C23.0382 7.39214 23.2245 7.33349 23.412 7.34986C23.5994 7.36624 23.7728 7.45629 23.8939 7.60028L28.0667 12.5706C28.1879 12.7147 28.2468 12.901 28.2306 13.0885C28.2143 13.2761 28.1243 13.4495 27.9802 13.5706C27.1731 14.2478 26.6094 15.8549 27.1589 16.5101C27.2189 16.5815 27.2642 16.664 27.2923 16.753C27.3203 16.8419 27.3305 16.9355 27.3224 17.0284C27.3142 17.1213 27.2877 17.2117 27.2446 17.2943C27.2014 17.377 27.1423 17.4503 27.0707 17.5101L14.7041 27.8886C14.5765 27.9962 14.4151 28.0552 14.2482 28.0553M7.94575 18.7358L14.3346 26.3456L25.7039 16.8056C25.2197 15.5889 25.7686 13.9979 26.5706 12.9978L23.2157 9.00045C22.0914 9.61811 20.4289 9.88211 19.3136 9.19645L7.94575 18.7358Z" fill="white"/>
<path d="M36.3272 18.994V36.031C36.327 36.9725 35.9529 37.8753 35.2872 38.541C34.6215 39.2067 33.7187 39.5808 32.7772 39.581H4.38338C3.44193 39.5808 2.5391 39.2067 1.87339 38.541C1.20769 37.8753 0.833599 36.9725 0.833378 36.031V13.315C0.830683 13.247 0.842737 13.1792 0.868711 13.1162C0.946585 13.7725 1.17723 14.4015 1.54213 14.9525C1.90703 15.5036 2.39602 15.9615 2.96988 16.2894C3.61296 16.6683 4.34628 16.867 5.09271 16.8644H33.3167C33.6328 16.5204 33.8403 16.0907 33.9132 15.6292C34.6169 15.8673 35.2282 16.3199 35.6612 16.9235C36.0942 17.5271 36.3271 18.2512 36.3272 18.994Z" fill="#566FF8"/>
<path d="M36.3271 18.9937V36.0307C36.3268 36.9722 35.9528 37.875 35.287 38.5407C34.6213 39.2064 33.7185 39.5805 32.7771 39.5807H20.0214C10.2817 36.1657 3.24673 27.0579 2.96973 16.2891C3.61281 16.668 4.34613 16.8667 5.09256 16.8641H33.3166C33.6327 16.5201 33.8402 16.0904 33.9131 15.6289C34.6167 15.867 35.228 16.3196 35.6611 16.9232C36.0941 17.5268 36.327 18.2509 36.3271 18.9937Z" fill="#6C95F8"/>
<path d="M36.3271 18.9937V27.5904C35.1146 27.8561 33.8768 27.9894 32.6356 27.9879C29.1152 27.9957 25.6751 26.937 22.7682 24.9514C19.8614 22.9657 17.6241 20.1462 16.3511 16.8641H33.3166C33.6327 16.5201 33.8402 16.0904 33.9131 15.6289C34.6167 15.867 35.2281 16.3196 35.6611 16.9232C36.0941 17.5268 36.327 18.2509 36.3271 18.9937Z" fill="#8FB6F8"/>
<path d="M39.1666 25.3826V31.0618C39.1649 31.626 38.94 32.1667 38.541 32.5657C38.1419 32.9647 37.6012 33.1896 37.0369 33.1913H31.3579C30.0405 33.1898 28.7774 32.6658 27.8458 31.7342C26.9142 30.8026 26.3902 29.5395 26.3887 28.2221C26.3871 27.9531 26.411 27.6846 26.4599 27.4201C26.6501 26.2577 27.2469 25.2007 28.144 24.4376C29.0411 23.6744 30.1801 23.2548 31.3579 23.2534H37.0369C37.5217 23.2555 37.9917 23.4205 38.3714 23.7219C38.6192 23.9221 38.8191 24.1751 38.9567 24.4624C39.0943 24.7497 39.166 25.0641 39.1666 25.3826Z" fill="#FE9C39"/>
<path d="M38.3714 23.7216C37.4254 27.2349 35.6702 30.4779 33.2462 33.1913H31.3579C30.0405 33.1898 28.7774 32.6658 27.8458 31.7342C26.9142 30.8026 26.3902 29.5395 26.3887 28.2221C26.3871 27.9531 26.411 27.6846 26.4599 27.4201C26.6501 26.2577 27.2469 25.2007 28.144 24.4376C29.0411 23.6744 30.1801 23.2548 31.3579 23.2534H37.0369C37.5217 23.2554 37.9917 23.4203 38.3714 23.7216Z" fill="#FED154"/>
<path d="M31.7345 23.2529C30.2891 24.9975 28.4918 26.4174 26.46 27.4196C26.6501 26.2573 27.2469 25.2002 28.1441 24.4371C29.0412 23.6739 30.1802 23.2543 31.358 23.2529H31.7345Z" fill="#FEEC88"/>
<path d="M34.1976 28.2224C34.1976 28.5032 34.1144 28.7778 33.9584 29.0113C33.8024 29.2448 33.5806 29.4268 33.3212 29.5343C33.0617 29.6418 32.7762 29.6699 32.5008 29.6151C32.2254 29.5603 31.9723 29.4251 31.7738 29.2265C31.5752 29.028 31.44 28.775 31.3852 28.4995C31.3304 28.2241 31.3585 27.9386 31.466 27.6791C31.5735 27.4197 31.7555 27.1979 31.989 27.0419C32.2225 26.8859 32.4971 26.8027 32.7779 26.8027C33.1544 26.8029 33.5154 26.9525 33.7816 27.2187C34.0478 27.4849 34.1974 27.8459 34.1976 28.2224Z" fill="white"/>
<path d="M6.51257 32.4814C6.41935 32.4814 6.32703 32.4631 6.2409 32.4274C6.15477 32.3917 6.07651 32.3395 6.01059 32.2735C5.94467 32.2076 5.89239 32.1294 5.85672 32.0432C5.82106 31.9571 5.80271 31.8648 5.80273 31.7716V24.6727C5.80273 24.4845 5.87752 24.3039 6.01064 24.1708C6.14376 24.0377 6.32431 23.9629 6.51257 23.9629C6.70083 23.9629 6.88138 24.0377 7.0145 24.1708C7.14762 24.3039 7.2224 24.4845 7.2224 24.6727V31.7716C7.22242 31.8648 7.20408 31.9571 7.16841 32.0432C7.13275 32.1294 7.08046 32.2076 7.01454 32.2735C6.94863 32.3395 6.87037 32.3917 6.78424 32.4274C6.6981 32.4631 6.60579 32.4814 6.51257 32.4814Z" fill="white"/>
</svg>
